<svg width="1440" height="421" viewBox="0 0 1440 421" fill="none" xmlns="http://www.w3.org/2000/svg">
<g opacity="0.4" clip-path="url(#clip0_300_180)">
<path d="M530.625 30.6355C530.888 48.5302 531.457 66.4077 532.005 84.2858C532.852 84.3114 533.715 84.3371 534.577 84.3711C536.129 90.6869 537.682 97.0027 539.264 103.31C540.817 104.123 542.377 104.936 543.937 105.758C544.364 107.546 544.799 109.326 545.242 111.115C552.319 117.415 550.012 92.8833 552.052 248.265C560.257 248.599 568.515 248.248 576.69 248.967C576.787 254.248 576.397 259.519 576.352 264.8C584.205 266.449 582.787 265.127 587.985 271.244C589.852 273.392 589.769 276.678 590.437 279.434C591.262 280.041 592.087 280.649 592.927 281.257C592.965 283.267 592.987 285.287 593.033 287.307C593.843 288.026 594.652 288.745 595.478 289.472C595.545 292.921 595.553 296.379 595.56 299.836C605.357 302.576 602.307 302.423 610.883 301.266C611.13 313.726 611.483 326.178 611.686 338.639C612.676 339.64 613.673 340.641 614.678 341.642C614.73 331.082 614.633 320.521 614.73 309.961C615.953 309.687 617.205 309.422 618.443 309.165C619.23 306.375 619.958 303.568 620.686 300.761C622.11 301.275 623.536 301.805 624.968 302.327C625.08 305.194 625.208 308.061 625.321 310.936C627.323 311.133 629.318 311.321 631.328 311.518C631.321 320.915 631.313 330.32 631.328 339.717C633.346 339.212 635.363 338.707 637.381 338.176C638.31 335.386 639.038 332.485 640.283 329.841C644.025 326.948 648.646 327.83 652.636 329.481C652.538 321.83 652.291 314.188 652.276 306.537C653.813 305.929 655.358 305.322 656.903 304.706C656.761 302.746 656.626 300.786 656.498 298.835C657.241 298.715 658.718 298.475 659.461 298.355C659.573 277.311 659.769 256.258 659.828 235.215C659.453 229.489 662.843 224.475 662.063 218.689C663.78 217.919 665.513 217.14 667.133 216.088C670.268 213.657 674.243 214.984 677.783 214.719C678.353 224.107 679.71 233.538 678.225 242.917C684.188 243.071 690.15 243.233 696.12 243.396C696.255 224.937 696.435 206.477 696.548 188.018C703.806 185.229 700.311 186.007 735.713 186.948C735.713 224.406 735.45 261.873 735.353 299.34C751.029 295.303 746.418 298.291 751.575 291.946C751.231 273.982 750.998 256.011 750.705 238.048C781.338 232.134 744.09 237.344 804.81 235.138C804.698 250.705 804.525 266.264 804.398 281.831C808.876 280.65 813.391 278.776 818.056 279.846C820.036 282.165 822.061 284.45 824.048 286.778C824.033 288.37 824.025 289.97 824.025 291.57C824.768 291.69 826.246 291.921 826.988 292.041C826.876 285.52 826.658 278.999 826.613 272.469C827.13 272.272 828.165 271.878 828.676 271.681C828.541 269.636 828.406 267.591 828.293 265.554C831 265.323 833.716 265.648 836.378 266.239C836.371 269.003 836.378 271.767 836.385 274.531C838.643 275.011 840.9 275.498 843.173 275.986C843.195 267.377 843.143 258.776 843.203 250.167C844.725 249.559 846.255 248.952 847.793 248.352C847.973 246.863 848.153 245.382 848.333 243.893C849.18 243.859 850.028 243.825 850.898 243.79C851.003 239.931 851.145 236.071 851.318 232.212C858.976 231.895 866.64 231.552 874.306 231.228C874.036 236.414 873.75 241.6 873.466 246.786C878.303 246.735 883.261 247.993 888.001 246.435C891.458 245.416 895.058 245.93 898.591 245.853C898.494 249.182 898.261 252.502 898.269 255.84C898.216 260.769 900.969 265.126 900.368 270.132C903.759 270.637 907.148 271.125 910.554 271.604C910.426 254.42 910.223 237.226 910.156 220.042C920.266 217.007 909.817 217.139 964.689 219.58C964.981 224.646 965.139 229.729 965.573 234.796C966.968 229.927 967.839 224.826 970.314 220.462C972.008 213.846 972.316 206.846 973.628 200.111C973.696 205.905 974.821 211.587 974.963 217.372C975.106 221 977.086 224.047 978.248 227.316C979.883 230.936 980.746 235.164 983.408 238.065C985.111 248.797 984.241 259.777 984.72 270.628C986.28 270.8 987.841 270.97 989.423 271.15C989.4 274.719 989.408 278.296 989.498 281.864C999.705 279.939 1010.44 277.448 1020.54 281.368C1020.39 286.049 1020.26 290.731 1020.12 295.42C1020.93 295.12 1021.75 294.83 1022.59 294.547C1022.62 292.99 1022.62 291.423 1022.83 289.875C1023.61 288.231 1024.92 287.033 1026.04 285.69C1027.32 286.665 1028.61 287.649 1029.91 288.625C1030.32 250.095 1029.93 251.464 1031.32 249.883C1035.07 244.765 1038.93 239.75 1042.71 234.658C1054.47 233.833 1061.24 238.088 1064.03 223.473C1067.29 223.276 1070.55 223.113 1073.81 222.959C1073.96 228.702 1073.27 235.428 1076.73 240.144C1077.05 251.414 1077.08 262.694 1077.2 273.973C1087.44 274.282 1097.68 274.341 1107.92 274.513C1108.06 270.79 1108.2 267.076 1108.37 263.353C1111.79 262.985 1115.36 262.523 1118.16 259.989C1118.01 258.663 1117.88 257.345 1117.77 256.018C1120.36 254.957 1122.85 253.443 1125.58 252.86C1129.01 253.853 1132.43 255.017 1135.71 256.558C1136.75 257.978 1136.79 260.109 1137.35 261.838C1139.46 261.864 1141.58 261.881 1143.72 261.889C1144.3 268.531 1144.86 275.171 1145.44 281.821C1149.54 281.675 1153.65 281.504 1157.77 281.341C1158.33 280.537 1158.91 279.732 1159.5 278.936C1162.76 278.936 1166.02 278.936 1169.28 278.919C1170.42 280.528 1171.57 282.146 1172.73 283.754C1173.42 281.649 1174.13 279.552 1174.84 277.455C1181.06 276.942 1187.3 276.48 1193.53 276.009C1194.71 281.676 1193.92 280.274 1198.27 284.756C1198.3 270.002 1198.26 255.239 1198.28 240.486C1207.07 238.543 1215.92 237.088 1224.77 235.574C1225.44 233.323 1226.12 231.089 1226.81 228.847C1238.96 226.931 1233.14 223.433 1258.11 230.379C1259.57 233.409 1261.1 236.404 1262.59 239.425C1266.87 239.373 1271.16 239.16 1275.45 239.014C1275.74 251.166 1276 263.327 1276.34 275.479C1278.03 275.821 1279.73 276.172 1281.45 276.524C1281.98 311.543 1282.54 346.554 1283.17 381.573C1292.8 383.943 1302.44 386.357 1312.05 388.847C1314.67 385.279 1316.73 381.145 1319.72 377.936C1324.9 376.438 1330.34 376.259 1335.62 375.214C1342.5 373.768 1349.51 374.393 1356.45 374.273C1362.2 391.635 1360.16 379.667 1360.73 399.048C1373.66 399.69 1386.58 400.357 1399.51 400.991C1400.92 397.867 1402.35 394.761 1403.85 391.689C1439.11 385.155 1428.13 385.459 1440 390.67V420.999H0V368.205C3.375 367.949 6.74269 367.692 10.1177 367.452C10.485 366.785 10.8529 366.126 11.2129 365.458C12.7277 365.467 14.2431 365.484 15.7579 365.492C16.3277 364.679 16.9054 363.875 17.4752 363.071C18.045 364.183 18.6154 365.304 19.1852 366.416C19.4704 363.652 19.755 360.897 20.0402 358.141C22.5602 357.243 25.11 356.455 27.6829 355.745C27.9681 354.633 28.2527 353.529 28.5379 352.425C29.6854 352.211 30.8402 352.006 32.0029 351.809C32.3702 350.645 32.7454 349.498 33.1206 348.343C33.5931 348.283 34.5454 348.163 35.0179 348.103C35.9331 338.878 36.9377 329.669 37.9429 320.461C40.8904 317.902 43.4256 314.487 47.3102 313.845C47.9779 305.578 48.1354 297.251 49.1479 289.027C48.9077 297.465 49.0427 305.903 49.0281 314.341C49.8831 313.237 50.7381 312.151 51.5931 311.055C51.8631 319.142 52.1556 327.23 52.4256 335.325C55.0581 333.597 57.8633 332.022 60.9907 332.236C61.5381 330.55 62.0859 328.855 62.6333 327.17C65.1982 327.033 67.5833 326.04 69.8783 324.816C74.5509 324.32 79.2681 324.799 83.9559 324.628C84.1134 327.204 84.2636 329.789 84.4132 332.373C84.9234 332.271 85.9359 332.065 86.4382 331.963C86.4759 332.425 86.5581 333.349 86.6031 333.811C87.8631 332.921 89.1382 332.048 90.4056 331.175C91.3506 332.313 92.3254 333.443 93.2704 334.598C93.0229 335.651 92.7754 336.712 92.5206 337.773C95.0704 337.602 97.6207 337.431 100.171 337.268C99.8932 341.975 99.6081 346.673 99.3381 351.381C99.9681 351.261 101.243 351.021 101.881 350.901C102.158 349.481 102.428 348.06 102.706 346.639C103.156 346.459 104.041 346.092 104.491 345.912C105.33 343.986 106.171 342.061 107.026 340.153C113.146 340.135 119.273 340.212 125.393 340.101C126.758 336.704 128.176 333.341 129.601 329.986C130.606 329.994 131.618 330.011 132.623 330.029C135.3 335.361 134.903 341.565 135.136 347.47C137.408 345.467 139.748 343.191 142.808 343.379C144.308 310.954 144.155 296.927 147.698 292.69C153.303 284.5 149.365 295.292 153.488 258.228C153.084 278.375 152.066 275.972 155.97 282.43C155.857 283.671 155.745 284.92 155.632 286.178C156.893 286.033 158.16 285.896 159.428 285.759C159.473 292.041 159.495 298.382 160.478 304.595C162.308 315.19 162.046 326.067 162.863 336.799C164.415 337.115 165.968 337.449 167.528 337.775C167.67 340.196 167.813 342.619 167.963 345.04C169.223 344.886 170.49 344.732 171.765 344.587C173.032 340.265 174.6 336.011 175.005 331.433C179.055 331.613 183.105 331.759 187.155 331.921C186.863 333.479 186.577 335.036 186.293 336.611C186.608 336.936 187.245 337.587 187.56 337.92C187.425 341.754 187.283 345.588 187.155 349.422C189.277 349.106 191.407 348.789 193.538 348.481C193.943 350.072 194.34 351.673 194.745 353.273C196.763 353.307 198.773 353.325 200.791 353.35C200.933 347.805 201.045 342.251 201.241 336.705C202.058 336.123 202.883 335.542 203.708 334.959C204.031 332.323 204.331 329.679 204.638 327.043C212.88 326.41 221.115 325.777 229.35 325.11C229.771 322.85 230.183 320.583 230.603 318.323C232.973 318.033 235.538 318.409 237.781 317.493C238.125 315.354 238.178 313.18 238.305 311.015C240.143 311.495 241.98 311.982 243.825 312.461C245.108 309.663 246.563 306.907 247.05 303.749C247.515 300.814 249.945 299.111 251.49 296.938C260.033 297.246 268.583 297.477 277.117 297.956C278.677 302.038 281.138 305.821 280.972 310.493C282.232 310.665 283.499 310.845 284.759 311.024C285.337 314.576 285.907 318.136 286.477 321.696C296.272 322.355 306.074 323.006 315.877 323.656C315.892 329.492 315.877 335.337 315.884 341.174C318.157 341.328 320.437 341.49 322.717 341.644C322.717 338.735 322.717 335.825 322.717 332.923C324.637 332.752 326.557 332.581 328.492 332.427C328.357 331.922 328.087 330.921 327.945 330.416C329.603 330.442 331.245 330.45 332.91 330.476C332.49 328.525 332.077 326.582 331.657 324.64C337.035 324.64 342.405 324.631 347.783 324.64C348.982 326.343 350.363 327.875 352.042 328.97C352.868 321.088 352.875 313.078 354.607 305.35C355.155 305.162 356.243 304.794 356.79 304.606C356.58 303.93 356.167 302.577 355.957 301.902C360.105 299.077 361.717 293.746 363.983 289.193C368.835 289.116 373.687 289.176 378.54 289.142C378.855 275.013 379.057 260.892 379.455 246.771C391.373 245.693 403.275 244.512 415.193 243.4C415.35 250.212 415.485 257.015 415.642 263.828C417.053 263.81 418.462 263.81 419.888 263.81C430.393 247.14 417.568 260.554 441.188 239.018C446.7 243.169 452.183 247.37 457.68 251.547C456.728 257.418 460.666 262.073 461.715 267.541C462.989 263.972 464.074 258.054 473.895 255.783C486.487 256.746 487.806 260.547 491.61 268.654C493.133 268.834 494.655 269.022 496.185 269.201C497.167 274.131 497.76 279.154 497.917 284.212C498.554 284.23 499.837 284.264 500.482 284.272C500.512 287.789 500.257 291.324 500.647 294.824C502.942 296.005 505.672 294.918 508.132 294.952C509.827 233.686 511.552 172.419 513.255 111.152C515.235 111.281 517.215 111.417 519.195 111.555C519.06 109.775 518.925 107.994 518.797 106.215C521.242 104.597 523.68 102.954 526.094 101.259C533.724 60.1432 528.319 108.019 530.625 30.6355Z" fill="#343434"/>
</g>
<defs>
<clipPath id="clip0_300_180">
<rect width="1440" height="421" fill="white"/>
</clipPath>
</defs>
</svg>
